<svg width="128" height="128" viewBox="0 0 128 128" fill="none" xmlns="http://www.w3.org/2000/svg">
  <rect width="128" height="128" rx="28" fill="#111318"/>
  <rect x="21" y="25" width="86" height="60" rx="14" fill="#1B1F27" stroke="#2C3240" stroke-width="4"/>
  <rect x="21" y="25" width="86" height="16" rx="14" fill="#222734"/>
  <circle cx="34" cy="33" r="3" fill="#B39CFF"/>
  <circle cx="45" cy="33" r="3" fill="#8E6FF0"/>
  <circle cx="56" cy="33" r="3" fill="#5AC79A"/>
  <rect x="31" y="49" width="66" height="24" rx="8" fill="#141821"/>
  <path d="M52.5 93.5C56.4 99.1 63.1 102.5 70.2 102.5C81.7 102.5 91 93.2 91 81.7V79.8" stroke="#A287FF" stroke-width="8" stroke-linecap="round"/>
  <path d="M75.5 76.5L91 76.5L91 92" stroke="#A287FF" stroke-width="8" stroke-linecap="round" stroke-linejoin="round"/>
  <path d="M75.5 52.5C71.6 46.9 64.9 43.5 57.8 43.5C46.3 43.5 37 52.8 37 64.3V66.2" stroke="#8E6FF0" stroke-width="8" stroke-linecap="round"/>
  <path d="M52.5 69.5L37 69.5L37 54" stroke="#8E6FF0" stroke-width="8" stroke-linecap="round" stroke-linejoin="round"/>
</svg>
